<?xml version="1.0" encoding="utf-8"?>
<!-- Generator: Adobe Illustrator 19.2.1, SVG Export Plug-In . SVG Version: 6.00 Build 0)  -->
<svg version="1.1" id="层_1" xmlns="http://www.w3.org/2000/svg" xmlns:xlink="http://www.w3.org/1999/xlink" x="0px" y="0px"
	 viewBox="0 0 259 116" style="enable-background:new 0 0 259 116;" xml:space="preserve">
<style type="text/css">
	.st0{fill:#4285F4;}
	.st1{fill:#EA4335;}
	.st2{fill:#FFFFFF;}
</style>
<path class="st0" d="M128.2,77c-5.4,0.4-5.6,3.7-8.1,6.7c-2.5,3.1-7.7,5.8-8.4,9.5c-0.8,4.7,1.8,7.2,4.3,8c2.7,0.9,8.8-0.7,11.9-0.7
	h0.3h0.3c3.1,0,9.1,1.6,11.9,0.7c2.5-0.9,4.9-4.5,4.3-8c-0.5-3-6.2-6.4-8.7-9.5C133.6,80.7,133.7,77.4,128.2,77z M109.3,76.3
	c0,3.4,2.2,6.1,4.8,6.1c2.7,0,4.8-2.7,4.8-6.1s-2.2-6.1-4.8-6.1S109.3,73,109.3,76.3z M119,67.5c0,3.5,2.1,6.4,4.6,6.4
	c2.6,0,4.7-2.9,4.7-6.4s-2.1-6.4-4.7-6.4C121,61,119,63.9,119,67.5z M130.7,67.4c0,3.3,2,6,4.5,6s4.5-2.7,4.5-6c0-3.3-2-6-4.5-6
	S130.7,64.1,130.7,67.4z M138.2,77.8c0,3.3,2.1,6,4.6,6c2.6,0,4.7-2.7,4.7-6c0-3.3-2.1-6-4.7-6C140.2,71.8,138.2,74.5,138.2,77.8z"
	/>
<path class="st1" d="M62.8,98.2V91h9c2.2,0,2.3,0.4,2.3,2.8v2c0,2.3-3.2,2.5-5.5,2.5h-5.8V98.2z M62.8,87.8V81h5.8
	c2.3,0,5.5,0,5.5,3v0.1c0,2-0.7,3.7-2.5,3.7C71.6,87.8,62.8,87.8,62.8,87.8z M59.5,77.9v23h9.1c4.3,0,8.7,0,8.7-5.1v-1.5
	c0-2.3-0.2-3.8-1.5-4.9c1.4-1.1,1.5-3.2,1.5-5.1l0,0c0-6.3-4.5-6.3-8.7-6.3L59.5,77.9L59.5,77.9z"/>
<path class="st1" d="M92.4,96.1c-1.5,1.6-4.6,1.8-4.9,1.8c-1.9,0-3.8-0.7-3.8-2.9c0-2,0.7-3.3,2.9-3.3c1.8,0,4,0.2,5.8,0.8V96.1z
	 M87.3,100.9c0.5,0,3.3-0.2,5.2-1.3l0.3,1h2.9V88c0-5.1-3.2-7.1-8-7.1c-2.5,0-6.1,1-6.6,1.2l0.6,3.2c2.2-0.8,4.2-0.9,5.9-0.9
	c2.6,0,4.6,0.9,4.6,3.7v1.1c-1.4-0.5-3.4-0.9-5.8-0.9c-4.2,0-6.3,2.3-6.3,6.6C80.3,100.3,84.7,100.9,87.3,100.9z"/>
<path class="st1" d="M99.7,78.1c0,0.9,0.9,1.7,1.8,1.7c1.1,0,1.9-0.8,1.9-1.7c0-1-0.8-1.8-1.9-1.8C100.6,76.3,99.7,77,99.7,78.1z
	 M99.9,100.6h3.4V81.5h-3.4V100.6z"/>
<path class="st1" d="M157.6,86.6h11.8c0.5,0.1,0.8,0.4,0.9,1v3.6h-13.7v-3.6C156.7,87,157,86.7,157.6,86.6z M157.6,98.4
	c-0.6,0-0.9-0.4-1-1.1v-3.6h13.7v3.7c0,0.6-0.3,1-0.9,1H157.6z M160.9,80.7c-0.1,0.5-0.2,1.3-0.5,2.4c-0.1,0.4-0.1,0.7-0.2,1h-3.7
	c-1.8,0.1-2.7,1.1-2.8,2.8V98c0.1,1.6,1.1,2.5,2.8,2.7h14.1c1.7-0.1,2.6-1,2.7-2.5V87c-0.1-1.8-1-2.7-2.7-2.9h-7
	c0.1-0.4,0.2-1.1,0.4-2c0.1-0.6,0.1-1,0.2-1.3h10.2v-2.6h-22.2v2.6L160.9,80.7L160.9,80.7z"/>
<path class="st1" d="M189.4,87.4c-0.5-0.1-0.7-0.3-0.7-0.7v-0.9h4.5v0.9c-0.1,0.4-0.3,0.6-0.7,0.7H189.4z M193.4,89.4
	c1.5-0.1,2.2-0.7,2.3-2V86h3.2v-2.1h-3.2v-1.6h-2.5v1.6h-4.5v-1.6h-2.6v1.6h-3.2V86h3.2v1.4c0.1,1.3,0.8,2,2.2,2H193.4z M190.9,98.3
	c2.3,1.1,4.8,1.9,7.6,2.6l1.2-2.4c-2-0.3-4.1-0.8-6.2-1.6c1.5-1.1,2.8-2.2,3.8-3.5c0.4-0.6,0.5-1.2,0.3-1.9c-0.4-0.8-1.1-1.2-2-1.2
	h-12.7v2.1h10.8c0.3,0,0.5,0.1,0.6,0.2s0,0.2-0.2,0.4c-0.9,0.9-2,1.8-3.3,2.6c-1.7-1-2.9-1.9-3.4-2.6h-3.1c1.2,1.4,2.6,2.7,4.1,3.8
	c-2.3,0.9-4.6,1.5-6.9,1.8l1.3,2.2C185.9,100.2,188.6,99.3,190.9,98.3z M181.7,90.9v-8.5c0.1-0.8,0.4-1.2,1.1-1.3h16.7v-2.3h-8.3
	c-0.1-0.2-3.1-0.1-3.1,0h-6.7c-1.5,0.2-2.4,1.3-2.5,3.1v8.7c0.1,3-0.5,6.2-1.6,9.4l2.7,0.8C181.1,97.6,181.7,94.3,181.7,90.9z"/>
<path class="st2" d="M122.5,89.5c0.8,0,1.7,0.2,2.4,0.5v4.8c0,0.4-0.9,1.4-2.7,1.4c-2.1,0-2.6-0.9-2.6-2.9v-0.8
	C119.5,90.4,120.2,89.5,122.5,89.5z M126.6,84.6h-1.7v3.5c-0.6-0.2-1.5-0.3-2.4-0.3c-3.8,0-4.6,1.4-4.6,4.9v0.4
	c0,3.4,1.3,4.6,4.5,4.6c1.1,0,1.9-0.2,2.6-0.7l0.2,0.8h1.5L126.6,84.6L126.6,84.6z"/>
<path class="st2" d="M137.1,87.8h-1.7v7.4c-0.9,0.5-2.4,0.8-3.4,0.8c-1.1,0-1.4-0.6-1.4-1.9v-6.5H129v6.8c0,2.3,0.7,3.2,2.9,3.2
	c1.4,0,2.9-0.4,3.6-0.8l0.1,0.8h1.5V87.8z"/>
<path class="st1" d="M187.9,77.5c0-1,0.8-1.8,1.7-1.8s1.7,0.8,1.7,1.8s-0.8,1.8-1.7,1.8C188.7,79.2,187.9,78.4,187.9,77.5z"/>
</svg>
